<svg xmlns="http://www.w3.org/2000/svg" width="1440" height="711" fill="none" viewBox="0 0 1440 711"><defs/><g fill="#1E2029" fill-rule="evenodd" clip-rule="evenodd" opacity=".5"><path d="M.184 355.848C24.07 276.622 144.8 181.295 343 238.635c102.605 29.684 203.041-29.251 316.761-95.981C766.284 80.148 884.463 10.802 1027 1.044 1175-9.09 1374.34 55.16 1440 169.29c0 0-2.9 147.015-.05 186.558h.05v352.177H0V355.848h.184z" opacity=".5"/><path d="M.184 443.78C24.07 383.666 144.8 311.335 343 354.843c101.776 22.341 187.778-18.908 287.059-66.526 94.564-45.356 201.175-96.49 344.941-103.958 224-11.636 399.34 109.213 465 195.81 0 0-2.9 34.418-.05 63.611h.05V711H0V443.78h.184z" opacity=".8"/></g></svg>