<?xml version="1.0" standalone="no"?>
<!DOCTYPE svg PUBLIC "-//W3C//DTD SVG 20010904//EN"
 "http://www.w3.org/TR/2001/REC-SVG-20010904/DTD/svg10.dtd">
<svg version="1.0" xmlns="http://www.w3.org/2000/svg"
 width="500.000000pt" height="500.000000pt" viewBox="0 0 500.000000 500.000000"
 preserveAspectRatio="xMidYMid meet">

<g transform="translate(0.000000,500.000000) scale(0.100000,-0.100000)"
fill="#000000" stroke="none">
<path d="M2414 4752 c-29 -10 -94 -43 -145 -74 -190 -113 -150 -101 -374 -108
-181 -6 -204 -8 -248 -29 -64 -32 -126 -105 -189 -226 -64 -123 -132 -193
-244 -253 -43 -23 -91 -53 -106 -65 -30 -24 -40 -57 -21 -64 8 -3 13 3 13 14
0 11 3 14 8 7 11 -17 237 113 292 167 25 25 69 90 99 145 124 227 145 240 401
246 197 6 238 15 343 79 137 85 197 109 265 109 65 0 108 -16 212 -78 19 -12
66 -38 103 -57 65 -34 70 -35 83 -18 19 26 18 27 -23 47 -21 10 -77 43 -126
73 -96 60 -202 103 -257 102 -19 0 -58 -8 -86 -17z"/>
<path d="M3037 4549 c-9 -12 -14 -26 -11 -31 3 -4 56 -8 118 -8 194 0 244 -29
341 -193 65 -111 116 -185 134 -200 11 -8 11 -6 -2 9 -9 11 -14 24 -10 28 4 4
1 11 -7 16 -13 8 -12 10 3 10 24 0 22 26 -3 33 -12 3 -20 14 -20 26 0 33 -81
180 -128 232 -69 76 -113 93 -268 97 -127 4 -132 4 -147 -19z"/>
<path d="M2290 4345 c-240 -39 -437 -121 -625 -258 -194 -143 -381 -379 -460
-583 -80 -208 -89 -257 -89 -504 0 -202 2 -221 27 -313 124 -456 440 -802 877
-962 443 -161 952 -88 1325 190 144 107 275 248 357 385 91 153 120 219 160
369 28 105 31 134 35 306 5 187 4 192 -27 320 -43 175 -71 242 -168 405 -177
294 -499 529 -852 620 -146 38 -410 50 -560 25z m355 -49 c77 -8 160 -21 184
-30 24 -9 52 -16 62 -16 10 0 33 -6 51 -14 18 -8 53 -22 78 -31 25 -9 54 -22
65 -28 11 -6 46 -25 78 -41 82 -43 83 -44 172 -112 65 -50 194 -177 240 -236
43 -56 65 -88 65 -95 0 -5 8 -18 18 -29 21 -23 85 -154 111 -226 100 -283 100
-592 -1 -878 -25 -72 -97 -217 -114 -231 -8 -6 -14 -16 -14 -21 0 -11 -51 -81
-62 -86 -5 -2 -8 -9 -8 -15 -1 -30 -298 -297 -330 -297 -6 0 -10 -4 -10 -9 0
-4 -26 -20 -57 -35 -32 -15 -69 -34 -83 -41 -38 -21 -97 -45 -109 -45 -6 0
-25 -6 -43 -14 -67 -29 -186 -55 -308 -67 -188 -18 -397 9 -590 76 -74 26
-120 46 -185 82 -98 55 -172 106 -238 167 -23 21 -52 45 -64 53 -13 9 -23 19
-23 23 0 4 -19 28 -42 53 -58 61 -68 74 -68 87 0 5 -4 10 -8 10 -4 0 -16 15
-27 33 -10 17 -22 34 -25 37 -15 11 -90 164 -90 184 0 8 -4 17 -9 21 -31 19
-101 351 -101 478 0 120 56 392 97 473 6 10 28 55 49 99 39 81 92 167 106 173
4 2 8 10 8 17 0 7 7 15 15 19 8 3 15 10 15 16 0 21 176 189 265 252 98 70 246
146 340 177 146 46 187 55 300 67 66 6 127 12 135 12 8 1 78 -5 155 -12z"/>
<path d="M2860 3621 c-34 -6 -102 -36 -128 -56 -44 -33 -106 -106 -123 -142
-10 -23 -20 -64 -22 -90 l-2 -48 61 -3 61 -3 23 61 c41 109 125 158 248 145
59 -6 66 -10 115 -59 39 -39 55 -63 62 -96 l10 -45 68 -3 67 -3 0 29 c0 37
-28 119 -53 157 -30 44 -70 84 -84 85 -7 0 -13 4 -13 8 0 4 -24 20 -52 34 -57
29 -170 43 -238 29z"/>
<path d="M1721 3546 c-8 -9 -10 -29 -6 -53 7 -44 53 -143 66 -143 5 0 9 -4 9
-10 0 -10 38 -49 66 -67 78 -50 108 -58 214 -58 91 0 112 3 155 25 56 27 61
31 114 82 39 37 87 127 98 181 8 38 -15 57 -70 57 -54 0 -74 -14 -82 -56 -8
-47 -48 -99 -98 -131 -54 -34 -167 -35 -225 -3 -47 27 -85 73 -102 125 -7 22
-17 46 -23 53 -13 17 -102 16 -116 -2z"/>
<path d="M1518 3059 c-14 -7 -18 -23 -18 -62 0 -68 27 -218 52 -287 41 -111
133 -279 159 -288 5 -2 9 -8 9 -14 0 -24 191 -199 255 -234 204 -110 344 -149
535 -149 154 0 353 46 450 105 8 5 34 19 58 31 23 11 48 26 55 33 7 6 37 30
67 53 62 47 160 146 160 161 0 6 3 12 8 14 11 5 56 69 73 103 9 17 20 39 26
50 58 108 103 298 103 434 0 65 68 61 -1002 61 -642 -1 -979 -4 -990 -11z
m1837 -140 c17 -27 -26 -181 -82 -294 -45 -92 -46 -93 -143 -197 -128 -136
-291 -222 -480 -253 -104 -17 -166 -18 -267 -4 -78 11 -219 53 -238 70 -5 5
-17 9 -27 9 -10 0 -18 4 -18 8 0 5 -17 16 -39 25 l-38 17 0 315 0 315 663 0
c459 0 665 -3 669 -11z"/>
<path d="M3803 4033 c-26 -10 -12 -30 43 -61 59 -34 77 -37 49 -8 -10 9 -15
23 -12 31 10 25 -47 52 -80 38z"/>
<path d="M3947 3933 c-4 -3 -7 -11 -7 -17 0 -6 5 -5 12 2 6 6 9 14 7 17 -3 3
-9 2 -12 -2z"/>
<path d="M1060 3909 c0 -5 5 -7 10 -4 6 3 10 8 10 11 0 2 -4 4 -10 4 -5 0 -10
-5 -10 -11z"/>
<path d="M3987 3863 c-2 -5 2 -21 9 -38 13 -29 13 -29 14 -5 0 19 2 22 9 11 6
-9 6 -22 0 -32 -5 -10 -8 -62 -7 -116 1 -54 3 -81 5 -60 3 28 9 37 22 37 34 0
35 102 3 183 -11 25 -45 38 -55 20z"/>
<path d="M4036 3603 c-4 -9 -1 -20 6 -25 10 -6 10 -8 -2 -9 -8 -1 -18 -1 -22
0 -5 0 -8 -14 -7 -31 1 -31 2 -31 8 -8 7 25 7 25 19 -7 11 -32 7 -39 -21 -34
-11 2 3 -79 23 -124 27 -64 97 -168 102 -154 3 8 -3 28 -13 46 -12 21 -14 33
-7 35 7 3 2 22 -15 54 -33 62 -46 120 -47 207 0 64 -11 86 -24 50z"/>
<path d="M4213 3005 c0 -22 2 -30 4 -17 2 12 2 30 0 40 -3 9 -5 -1 -4 -23z"/>
<path d="M4195 2861 c-3 -5 -1 -12 5 -16 5 -3 10 1 10 9 0 18 -6 21 -15 7z"/>
<path d="M840 2840 c0 -5 5 -10 10 -10 6 0 10 5 10 10 0 6 -4 10 -10 10 -5 0
-10 -4 -10 -10z"/>
<path d="M4114 2783 c-20 -31 -51 -84 -68 -118 l-31 -60 -3 -200 c-3 -194 -3
-199 15 -181 13 13 15 20 6 23 -22 8 -15 41 10 46 21 4 21 5 2 11 -28 10 -31
69 -7 104 13 18 21 54 26 107 7 84 20 117 104 255 27 43 27 47 2 60 -17 9 -24
3 -56 -47z"/>
<path d="M884 2753 c-8 -24 -5 -40 25 -103 l36 -75 5 -190 c4 -171 7 -195 28
-236 20 -41 26 -46 57 -47 35 -1 35 -1 19 23 -18 28 -25 30 -42 13 -9 -9 -12
-9 -12 0 0 7 5 12 11 12 7 0 9 10 4 28 -4 15 -10 117 -14 228 l-6 200 -33 65
c-18 35 -41 74 -50 87 l-18 23 -10 -28z m101 -441 c-3 -3 -11 0 -18 7 -9 10
-8 11 6 5 10 -3 15 -9 12 -12z"/>
<path d="M4049 2368 c-6 -21 -5 -38 2 -38 5 0 9 9 9 20 0 16 -7 28 -11 18z"/>
<path d="M1090 2065 c0 -9 5 -15 11 -13 6 2 11 8 11 13 0 5 -5 11 -11 13 -6 2
-11 -4 -11 -13z"/>
<path d="M3765 1996 c-134 -78 -215 -153 -215 -199 0 -22 11 -47 20 -47 11 0
50 67 50 86 0 8 5 14 11 14 6 0 29 15 52 34 23 18 56 41 73 49 29 15 43 33 50
65 3 15 -14 14 -41 -2z m-30 -46 c3 -5 -1 -10 -10 -10 -9 0 -13 5 -10 10 3 6
8 10 10 10 2 0 7 -4 10 -10z"/>
<path d="M1243 1972 c-30 -5 -29 -16 3 -37 l27 -17 -7 26 c-5 20 -3 24 9 20 8
-4 15 -4 15 -1 0 8 -24 13 -47 9z"/>
<path d="M1304 1951 c4 -6 2 -11 -3 -11 -16 0 -13 -26 3 -39 10 -8 16 -9 21
-1 3 5 1 10 -4 10 -6 0 -11 7 -11 15 0 8 5 15 11 15 5 0 8 -4 4 -9 -3 -5 -1
-12 5 -16 5 -3 10 -13 10 -21 0 -22 68 -108 92 -117 11 -4 25 -4 31 0 6 4 8 0
5 -9 -4 -8 2 -19 12 -26 17 -11 18 -9 7 16 -19 43 -66 112 -98 143 -31 30 -96
69 -85 50z"/>
<path d="M3526 1763 c-6 -14 -5 -15 5 -6 7 7 10 15 7 18 -3 3 -9 -2 -12 -12z"/>
<path d="M3502 1663 c-10 -14 -14 -15 -18 -5 -4 9 -18 -4 -39 -35 -47 -70 -66
-83 -158 -114 -45 -16 -80 -29 -77 -29 3 -1 14 -3 25 -5 11 -2 21 -9 23 -14 6
-19 61 -12 112 14 53 27 70 48 63 76 -3 11 0 19 7 19 7 0 10 7 6 15 -3 8 -1
15 4 15 6 0 10 -4 10 -10 0 -17 20 -11 27 8 4 9 15 28 25 41 10 13 18 28 18
32 0 15 -14 10 -28 -8z"/>
<path d="M1523 1652 c-3 -12 -9 -22 -14 -22 -10 0 15 -43 56 -94 56 -70 176
-109 202 -66 12 18 8 21 -45 37 -69 21 -94 40 -150 112 -39 48 -44 52 -49 33z"/>
<path d="M3147 1470 c3 -11 10 -20 15 -20 5 0 7 4 3 9 -3 6 3 14 12 20 16 9
15 10 -9 11 -21 0 -25 -4 -21 -20z"/>
<path d="M2740 1393 c-36 -7 -55 -24 -38 -34 21 -13 -25 -54 -49 -44 -16 8
-16 9 5 12 12 3 22 11 22 18 0 10 -5 12 -17 7 -10 -5 -36 -16 -58 -26 -22 -11
-59 -21 -82 -24 -28 -3 -43 -10 -43 -19 0 -11 -8 -12 -35 -7 -21 4 -35 2 -35
-4 0 -24 181 -25 196 -1 3 5 16 9 30 9 13 0 24 4 24 8 0 5 18 17 40 27 22 10
40 22 40 27 0 4 7 8 15 8 16 0 38 34 28 44 -3 3 -9 5 -12 5 -3 -1 -17 -4 -31
-6z"/>
<path d="M2415 1310 c11 -5 27 -9 35 -9 9 0 8 4 -5 9 -11 5 -27 9 -35 9 -9 0
-8 -4 5 -9z"/>
<path d="M2368 1283 c7 -3 16 -2 19 1 4 3 -2 6 -13 5 -11 0 -14 -3 -6 -6z"/>
</g>
</svg>
